<mxfile host="app.diagrams.net" modified="2022-08-09T11:33:17.265Z" agent="5.0 (Windows NT 10.0; Win64; x64) AppleWebKit/537.36 (KHTML, like Gecko) Chrome/103.0.0.0 Safari/537.36" etag="4GpwL5YKYpsrtfGZfJ5J" version="20.2.3" type="github">
  <diagram id="jk6rqexx8ZE6icUe55F6" name="Страница 1">
    <mxGraphModel dx="1422" dy="794" grid="1" gridSize="10" guides="1" tooltips="1" connect="1" arrows="1" fold="1" page="1" pageScale="1" pageWidth="827" pageHeight="1169" math="0" shadow="0">
      <root>
        <mxCell id="0" />
        <mxCell id="1" parent="0" />
        <mxCell id="Eo7WvKYMzbzBx4UwO67U-3" style="edgeStyle=orthogonalEdgeStyle;rounded=0;orthogonalLoop=1;jettySize=auto;html=1;" edge="1" parent="1" source="Eo7WvKYMzbzBx4UwO67U-1" target="Eo7WvKYMzbzBx4UwO67U-2">
          <mxGeometry relative="1" as="geometry" />
        </mxCell>
        <mxCell id="Eo7WvKYMzbzBx4UwO67U-1" value="начало" style="ellipse;whiteSpace=wrap;html=1;" vertex="1" parent="1">
          <mxGeometry x="340" y="90" width="120" height="80" as="geometry" />
        </mxCell>
        <mxCell id="Eo7WvKYMzbzBx4UwO67U-7" value="" style="edgeStyle=orthogonalEdgeStyle;rounded=0;orthogonalLoop=1;jettySize=auto;html=1;" edge="1" parent="1" source="Eo7WvKYMzbzBx4UwO67U-2" target="Eo7WvKYMzbzBx4UwO67U-6">
          <mxGeometry relative="1" as="geometry" />
        </mxCell>
        <mxCell id="Eo7WvKYMzbzBx4UwO67U-2" value="List&amp;lt;Users&amp;gt; users = new List(){user1,user2,user3};" style="rounded=0;whiteSpace=wrap;html=1;" vertex="1" parent="1">
          <mxGeometry x="340" y="210" width="120" height="60" as="geometry" />
        </mxCell>
        <mxCell id="Eo7WvKYMzbzBx4UwO67U-9" value="" style="edgeStyle=orthogonalEdgeStyle;rounded=0;orthogonalLoop=1;jettySize=auto;html=1;" edge="1" parent="1" source="Eo7WvKYMzbzBx4UwO67U-6" target="Eo7WvKYMzbzBx4UwO67U-8">
          <mxGeometry relative="1" as="geometry" />
        </mxCell>
        <mxCell id="Eo7WvKYMzbzBx4UwO67U-23" value="" style="edgeStyle=orthogonalEdgeStyle;rounded=0;orthogonalLoop=1;jettySize=auto;html=1;fontSize=10;" edge="1" parent="1" source="Eo7WvKYMzbzBx4UwO67U-6" target="Eo7WvKYMzbzBx4UwO67U-22">
          <mxGeometry relative="1" as="geometry" />
        </mxCell>
        <mxCell id="Eo7WvKYMzbzBx4UwO67U-6" value="for(int i = 0; i &amp;lt; users.Count; i++)" style="shape=hexagon;perimeter=hexagonPerimeter2;whiteSpace=wrap;html=1;fixedSize=1;rounded=0;" vertex="1" parent="1">
          <mxGeometry x="340" y="340" width="120" height="50" as="geometry" />
        </mxCell>
        <mxCell id="Eo7WvKYMzbzBx4UwO67U-11" value="" style="edgeStyle=orthogonalEdgeStyle;rounded=0;orthogonalLoop=1;jettySize=auto;html=1;" edge="1" parent="1" source="Eo7WvKYMzbzBx4UwO67U-8" target="Eo7WvKYMzbzBx4UwO67U-10">
          <mxGeometry relative="1" as="geometry" />
        </mxCell>
        <mxCell id="Eo7WvKYMzbzBx4UwO67U-14" value="" style="edgeStyle=orthogonalEdgeStyle;rounded=0;orthogonalLoop=1;jettySize=auto;html=1;" edge="1" parent="1" source="Eo7WvKYMzbzBx4UwO67U-8" target="Eo7WvKYMzbzBx4UwO67U-13">
          <mxGeometry relative="1" as="geometry" />
        </mxCell>
        <mxCell id="Eo7WvKYMzbzBx4UwO67U-8" value="!users[i].IsPremium" style="rhombus;whiteSpace=wrap;html=1;rounded=0;" vertex="1" parent="1">
          <mxGeometry x="340" y="455" width="120" height="55" as="geometry" />
        </mxCell>
        <mxCell id="Eo7WvKYMzbzBx4UwO67U-17" value="" style="edgeStyle=orthogonalEdgeStyle;rounded=0;orthogonalLoop=1;jettySize=auto;html=1;" edge="1" parent="1" source="Eo7WvKYMzbzBx4UwO67U-10">
          <mxGeometry relative="1" as="geometry">
            <mxPoint x="320" y="590" as="targetPoint" />
          </mxGeometry>
        </mxCell>
        <mxCell id="Eo7WvKYMzbzBx4UwO67U-10" value="ShowAds();" style="shape=parallelogram;perimeter=parallelogramPerimeter;whiteSpace=wrap;html=1;fixedSize=1;rounded=0;" vertex="1" parent="1">
          <mxGeometry x="470" y="560" width="120" height="60" as="geometry" />
        </mxCell>
        <mxCell id="Eo7WvKYMzbzBx4UwO67U-12" value="да" style="text;html=1;strokeColor=none;fillColor=none;align=center;verticalAlign=middle;whiteSpace=wrap;rounded=0;" vertex="1" parent="1">
          <mxGeometry x="470" y="452.5" width="60" height="30" as="geometry" />
        </mxCell>
        <mxCell id="Eo7WvKYMzbzBx4UwO67U-19" value="" style="edgeStyle=orthogonalEdgeStyle;rounded=0;orthogonalLoop=1;jettySize=auto;html=1;fontSize=10;" edge="1" parent="1" source="Eo7WvKYMzbzBx4UwO67U-13" target="Eo7WvKYMzbzBx4UwO67U-18">
          <mxGeometry relative="1" as="geometry" />
        </mxCell>
        <mxCell id="Eo7WvKYMzbzBx4UwO67U-13" value="&lt;font style=&quot;font-size: 10px;&quot;&gt;Console.WriteLine&lt;br&gt;($&quot;Привет, {users[i].Name&quot;);&lt;/font&gt;" style="shape=parallelogram;perimeter=parallelogramPerimeter;whiteSpace=wrap;html=1;fixedSize=1;rounded=0;" vertex="1" parent="1">
          <mxGeometry x="210" y="560" width="120" height="60" as="geometry" />
        </mxCell>
        <mxCell id="Eo7WvKYMzbzBx4UwO67U-15" value="нет" style="text;html=1;strokeColor=none;fillColor=none;align=center;verticalAlign=middle;whiteSpace=wrap;rounded=0;" vertex="1" parent="1">
          <mxGeometry x="270" y="452.5" width="60" height="30" as="geometry" />
        </mxCell>
        <mxCell id="Eo7WvKYMzbzBx4UwO67U-21" value="" style="edgeStyle=orthogonalEdgeStyle;rounded=0;orthogonalLoop=1;jettySize=auto;html=1;fontSize=10;" edge="1" parent="1" source="Eo7WvKYMzbzBx4UwO67U-18">
          <mxGeometry relative="1" as="geometry">
            <mxPoint x="340" y="365" as="targetPoint" />
          </mxGeometry>
        </mxCell>
        <mxCell id="Eo7WvKYMzbzBx4UwO67U-18" value="" style="shape=waypoint;sketch=0;size=6;pointerEvents=1;points=[];fillColor=default;resizable=0;rotatable=0;perimeter=centerPerimeter;snapToPoint=1;rounded=0;" vertex="1" parent="1">
          <mxGeometry x="140" y="345" width="40" height="40" as="geometry" />
        </mxCell>
        <mxCell id="Eo7WvKYMzbzBx4UwO67U-22" value="конец" style="ellipse;whiteSpace=wrap;html=1;rounded=0;" vertex="1" parent="1">
          <mxGeometry x="540" y="335" width="120" height="60" as="geometry" />
        </mxCell>
      </root>
    </mxGraphModel>
  </diagram>
</mxfile>
